<svg width="60" height="60" viewBox="0 0 60 60" fill="none" xmlns="http://www.w3.org/2000/svg">
    <circle cx="30" cy="30" r="28" fill="#2a9d8f" opacity="0.1"/>
    <path d="M30 15C35.5228 15 40 19.4772 40 25C40 30.5228 35.5228 35 30 35C24.4772 35 20 30.5228 20 25C20 19.4772 24.4772 15 30 15ZM30 18C26.134 18 23 21.134 23 25C23 28.866 26.134 32 30 32C33.866 32 37 28.866 37 25C37 21.134 33.866 18 30 18Z" fill="#2a9d8f"/>
    <path d="M30 35C38.2843 35 45 41.7157 45 50H15C15 41.7157 21.7157 35 30 35Z" fill="#2a9d8f"/>
</svg> 